# xmcd
#
# Track frame offsets: 
#        150
#        14412
#        37132
#        53732
#        72327
#        90507
#        109030
#        128865
#        148995
#        170565
#        185775
#        203592
#
# Disc length: 3030 seconds
#
# Revision: 1
# Processed by: cddbd v1.5.2PL0 Copyright (c) Steve Scherf et al.
# Submitted via: ExactAudioCopy v1.1
#
DISCID=b10bd40c
DTITLE=George Benson - Grand New World - Greatest Love Songs
DYEAR=1990
DGENRE=Soul
TTITLE0=Grand New World
TTITLE1=Give Me The Night
TTITLE2=Turn Your Love Around
TTITLE3=20-20
TTITLE4=Lady Love Me (One More Time)
TTITLE5=Never Give Up On A Good Thing
TTITLE6=Feel Like Making Love
TTITLE7=New Day
TTITLE8=Love X Love
TTITLE9=In Your Eyes
TTITLE10=No One Emotion
TTITLE11=Inside Love (So Personal)
EXTD=YEAR: 1990
EXTT0=
EXTT1=
EXTT2=
EXTT3=
EXTT4=
EXTT5=
EXTT6=
EXTT7=
EXTT8=
EXTT9=
EXTT10=
EXTT11=
PLAYORDER=
